<?xml version="1.0" encoding="utf-8"?>
<!-- Generator: Adobe Illustrator 14.0.0, SVG Export Plug-In . SVG Version: 6.00 Build 43363)  -->
<!DOCTYPE svg PUBLIC "-//W3C//DTD SVG 1.1//EN" "http://www.w3.org/Graphics/SVG/1.1/DTD/svg11.dtd">
<svg version="1.1" xmlns="http://www.w3.org/2000/svg" xmlns:xlink="http://www.w3.org/1999/xlink" x="0px" y="0px" width="48px"
	 height="48px" viewBox="0 0 48 48" enable-background="new 0 0 48 48" xml:space="preserve">
<g id="Layer_1" display="none">
	<rect x="0.017" display="inline" fill-rule="evenodd" clip-rule="evenodd" fill="#3B67A8" width="48" height="48"/>
</g>
<g id="Layer_6">
	<g>
		<path fill-rule="evenodd" clip-rule="evenodd" fill="#333333" d="M23.083,2.299c0.622,0,1.244,0,1.865,0
			c8.28,0.99,13.07,5.468,15.09,12.716c3.25,0.168,5.102,1.735,5.68,4.577c0,0.396,0,0.791,0,1.187
			c-0.539,2.457-1.939,4.053-4.578,4.408c0.295,0.941,0.825,1.678,1.187,2.627c0.467,1.227,0.876,2.619,0.763,4.492
			c-0.513,8.455-9.963,13.393-19.074,13.393c-4.816,0-9.21-1.311-12.63-3.559c-3.473-2.283-6.772-5.578-6.443-11.02
			c0.148-2.447,1.028-4.104,2.035-5.85c-2.655-0.396-4.151-1.952-4.663-4.492c0-0.396,0-0.791,0-1.187
			c0.614-2.749,2.218-4.507,5.595-4.493C10.017,7.883,14.728,3.268,23.083,2.299z M34.613,9.759
			c-2.344-2.698-5.854-4.917-10.597-4.917c-4.742,0-8.252,2.218-10.596,4.917c-2.504,2.882-3.77,6.806-3.391,12.207
			c0.401-0.032,0.774-0.432,1.272-0.762c0.441-0.294,1.131-0.536,1.271-0.933c0.411-1.166-0.105-3.409,0-4.493
			c0.553-5.669,8.222-7.746,11.359-3.306c1.348-1.156,2.479-2.293,4.662-2.458c5.365-0.406,7.599,4.304,6.867,10.341
			c0.285,0.379,0.895,0.54,1.355,0.849c0.412,0.276,0.818,0.901,1.188,0.677C38.377,16.522,37.1,12.621,34.613,9.759z M15.37,14.93
			c-0.749,1.952,0.376,4.721-0.339,6.697c-0.288,0.795-1.306,1.046-1.949,1.441c-2.066,1.264-3.846,2.836-4.917,5.254
			c-1.956,4.418,0.508,8.359,3.137,10.598c5.658,4.816,16.189,5.637,23.313,1.525c3.078-1.777,6.167-4.744,5.934-9.24
			c-0.206-3.973-2.84-6.451-5.595-8.137c-0.811-0.496-1.72-0.8-1.95-1.526c-0.664-2.099,0.293-4.593-0.254-6.359
			c-1.023-3.307-5.852-3.298-7.121-0.423c-0.305,0.69-0.065,2.957-1.695,2.882c-1.405-0.065-1.042-1.94-1.61-3.052
			c-0.586-1.146-2.046-2.151-3.815-1.95C16.865,12.829,15.773,13.877,15.37,14.93z M7.486,22.729
			c0.053-1.67-0.108-3.555,0.085-5.085C4.096,17.309,4.066,22.979,7.486,22.729z M40.547,22.729
			c3.396,0.164,3.365-5.333-0.084-5.085C40.654,19.173,40.494,21.058,40.547,22.729z"/>
		<path fill-rule="evenodd" clip-rule="evenodd" fill="#333333" d="M18.591,17.728c1.065-0.262,1.547,0.327,1.61,1.017
			c0.159,1.721-2.637,2.139-2.542,0.085C17.681,18.351,17.907,17.896,18.591,17.728z"/>
		<path fill-rule="evenodd" clip-rule="evenodd" fill="#333333" d="M28.764,17.728c1.064-0.262,1.547,0.327,1.611,1.017
			c0.158,1.721-2.638,2.139-2.543,0.085C27.854,18.351,28.08,17.896,28.764,17.728z"/>
		<path fill-rule="evenodd" clip-rule="evenodd" fill="#333333" d="M21.134,22.813c0.628-0.146,1.556,0.071,1.611,1.103
			c0.055,1.047-1.542,2.627-2.544,2.627c-0.71,0-1.239-0.572-1.271-1.188C18.886,24.531,20.323,23.002,21.134,22.813z"/>
		<path fill-rule="evenodd" clip-rule="evenodd" fill="#333333" d="M26.221,22.813c0.939-0.241,2.837,1.38,2.883,2.374
			c0.034,0.76-0.604,1.355-1.271,1.355c-0.7,0-2.544-1.373-2.544-2.543C25.288,23.319,25.738,22.938,26.221,22.813z"/>
		<path fill-rule="evenodd" clip-rule="evenodd" fill="#333333" d="M17.489,30.441c4.323,0,8.646,0,12.97,0
			c0.422-0.389,0.615-1.041,1.018-1.441c0.883-0.873,4.089-2.027,3.984,0.256c-0.073,1.592-2.544,0.736-2.544,2.457
			c0,1.492,2.417,0.996,2.544,2.375c0.215,2.336-3.051,1.264-3.984,0.338c-0.404-0.398-0.568-0.875-0.933-1.441
			c-4.323,0-8.647,0-12.97,0c-0.492,0.52-0.663,1.127-1.102,1.527c-0.926,0.846-4.002,1.898-3.9-0.34
			c0.075-1.641,2.462-0.619,2.543-2.375c0.077-1.668-2.408-0.984-2.543-2.457c-0.065-0.705,0.4-1.322,1.017-1.441
			C15.559,27.52,16.857,29.25,17.489,30.441z"/>
	</g>
</g>
<g id="Layer_5" display="none">
	<g display="inline">
		<path fill-rule="evenodd" clip-rule="evenodd" fill="#333333" d="M45.752,9.921c0,0.509,0,1.019,0,1.528
			c-0.298,2.278-1.49,3.661-2.718,5.009c1.533,3.181,2.382,6.637,1.953,10.697c-0.761,7.193-5.056,12.357-10.358,15.113
			c-2.996,1.557-6.258,2.207-10.528,2.207c-8.807,0-13.89-3.057-17.489-8.066C4.083,32.893,2.137,27.459,3.3,21.298
			c0.145-0.771,0.397-1.712,0.679-2.547c0.213-0.628,0.905-1.514,0.934-2.207c0.029-0.678-1.397-1.64-1.868-2.547
			c-0.45-0.868-0.501-1.559-0.764-2.547c0-0.51,0-1.019,0-1.528C2.86,4.754,8.885,1.758,13.318,4.657
			c0.872,0.57,1.43,1.511,2.463,2.208c4.141-1.681,12.331-1.681,16.471,0c1.068-0.79,1.561-1.563,2.547-2.208
			C39.306,1.714,45.317,4.991,45.752,9.921z M4.828,10.685c0,1.562,0.618,2.656,1.614,3.397c1.698-2.547,3.898-4.592,6.707-6.028
			C10.747,4.479,4.828,6.34,4.828,10.685z M43.203,10.6c-0.061-4.261-5.939-6.124-8.319-2.546c2.81,1.437,5.009,3.481,6.707,6.028
			C42.6,13.327,43.227,12.212,43.203,10.6z M42.101,28.77c2.101-9.064-3.421-16.572-9.849-19.273
			c-4.293-1.803-12.308-1.749-16.471,0C9.278,12.228,3.855,19.811,5.932,28.77c1.789,7.717,7.658,12.789,16.811,13.16
			c0-1.471,0-2.943,0-4.414c-4.439-0.084-5.001-6.049-1.358-7.387c1.283-0.473,3.854-0.469,5.095-0.086
			c3.857,1.193,3.27,7.408-1.189,7.473c0,1.471,0,2.943,0,4.414C34.539,41.525,40.321,36.445,42.101,28.77z M21.809,34.629
			c0.549,0.543,3.705,0.709,4.415,0c0.54-0.541,0.408-1.461,0-1.869c-0.582-0.582-2.669-0.6-3.821-0.254
			C21.617,32.74,21.123,33.951,21.809,34.629z"/>
		<path fill-rule="evenodd" clip-rule="evenodd" fill="#333333" d="M14.676,15.44c4.321-0.519,7.619,2.707,7.642,6.877
			c0.016,2.869-1.341,4.769-3.056,6.029c-1.646,1.207-3.9,2.688-6.792,1.613c-1.804-0.672-3.547-2.604-3.821-4.755
			C7.958,19.769,10.241,15.973,14.676,15.44z M11.195,21.468c-0.538,3.556,0.585,6.626,3.821,6.284
			c1.326-0.143,3.45-1.757,4.076-2.719c2.134-3.277-0.55-7.594-4.246-7.046C13.026,18.256,11.475,19.617,11.195,21.468z
			 M15.099,21.265c1.071-0.263,1.58,0.355,1.536,1.213c-0.071,1.395-2.513,1.725-2.426-0.161
			C14.23,21.859,14.446,21.424,15.099,21.265z M32.277,21.265c1.07-0.263,1.58,0.355,1.536,1.213
			c-0.071,1.395-2.513,1.725-2.427-0.161C31.408,21.859,31.625,21.424,32.277,21.265z"/>
		<path fill-rule="evenodd" clip-rule="evenodd" fill="#333333" d="M31.826,15.44c5.566-0.625,8.261,4.22,7.558,9.764
			c-0.43,3.382-4.188,6.089-7.981,4.755c-1.559-0.549-3.799-2.24-4.67-3.65c-1.074-1.745-1.4-4.613-0.509-6.793
			C26.975,17.681,28.984,15.759,31.826,15.44z M28.94,25.033c0.677,1.04,2.483,2.355,3.735,2.633c3.301,0.732,4.705-2.6,4.16-6.198
			c-0.33-2.188-2.5-3.822-4.84-3.48C28.909,18.438,27.064,22.153,28.94,25.033z"/>
	</g>
</g>
<g id="Layer_4" display="none">
	<g display="inline">
		<path fill-rule="evenodd" clip-rule="evenodd" fill="#333333" d="M46.831,28.926c0,0.297,0,0.594,0,0.893
			c-1.892,6.283-10.471,7.582-17.734,8.555c-0.59,3.521-0.603,7.096-3.564,8.109c-2.338,0.801-4.566-0.438-5.437-2.049
			c-0.919-1.703-0.573-4.096-1.069-6.061c-7.27-0.975-15.847-2.176-17.824-8.555c0-0.299,0-0.596,0-0.893
			c0.153-1.252,2.336-1.238,2.673-2.139c0.272-0.727,0.048-2.094,0.179-3.03c0.275-1.98,0.715-3.425,1.426-5.08
			c0.37-0.861,0.961-1.625,1.069-2.229c0.39-2.169,0-5.033,0-7.664c0-1.82-0.481-6.589,0.535-7.219
			c1.358-0.841,4.62,0.313,5.704,0.802c2.699,1.218,4.17,2.947,5.614,4.991c3.163-1.133,8.138-1.079,11.318,0
			c1.405-2.318,2.942-3.782,5.704-4.991c1.056-0.462,4.354-1.709,5.614-0.713c0.554,0.438,0.445,1.945,0.445,3.387
			c0,2.783,0,5.044,0,7.664c0,1.333-0.209,2.779,0,3.833c0.133,0.667,0.758,1.414,1.069,2.139c1.033,2.403,1.613,5.115,1.604,8.199
			C45.012,27.596,46.395,27.791,46.831,28.926z M9.222,12.795c1.81-1.489,3.887-3.481,6.507-4.456
			c-1.385-2.181-3.447-3.682-6.507-4.188C9.222,7.032,9.222,9.914,9.222,12.795z M32.305,8.339c2.251,0.876,4.259,2.489,5.883,3.921
			c0.198,0.175,0.321,0.628,0.623,0.445c-0.114-2.819,0.233-6.08-0.179-8.555C35.713,4.736,33.65,6.179,32.305,8.339z M27.582,9.498
			c-1.596-0.326-3.475-0.397-5.17-0.268c-4.632,0.354-8.259,2.645-10.962,5.348c-2.782,2.783-4.651,6.639-4.901,11.406
			c3.184-0.898,7.02-0.52,9.804,0.535c1.193,0.453,3.391,1.355,3.922,2.406c0.281,0.563,0.334,1.533,0.444,2.316
			c0.352,2.471,0.657,4.863,0.98,7.309c1.545,0,3.09,0,4.634,0c0.217-1.631,0.399-3.256,0.625-4.9
			c0.185-1.352,0.278-3.686,0.803-4.725c0.385-0.764,1.736-1.363,2.584-1.781c3.025-1.496,7.393-2.241,11.14-1.16
			C40.771,17.34,35.39,11.094,27.582,9.498z M4.054,29.996c2.815,3.898,8.543,4.883,14.527,5.615
			c-0.175-1.846-0.52-3.521-0.714-5.348C14.729,27.82,7.34,27.338,4.054,29.996z M30.166,30.264
			c-0.192,1.826-0.537,3.502-0.713,5.348c2.987-0.178,5.874-0.863,8.377-1.693c2.48-0.824,5.005-1.764,6.15-4.012
			C40.55,27.412,33.324,27.797,30.166,30.264z M22.146,41.225c-0.69,3.555,4.434,3.555,3.743,0
			C24.641,41.225,23.393,41.225,22.146,41.225z"/>
		<path fill-rule="evenodd" clip-rule="evenodd" fill="#333333" d="M15.55,20.014c1.182-0.353,4.376,1.342,4.456,2.407
			c0.049,0.637-0.438,1.314-0.891,1.426c-0.951,0.232-1.822-0.516-2.585-0.892c-0.62-0.307-1.794-0.584-1.871-1.604
			C14.599,20.56,15.091,20.151,15.55,20.014z"/>
		<path fill-rule="evenodd" clip-rule="evenodd" fill="#333333" d="M31.593,20.014c0.754-0.143,1.811-0.013,1.782,1.248
			c-0.022,0.945-0.966,1.282-1.782,1.694c-1.03,0.517-3.616,1.776-3.566-0.446C28.054,21.345,30.501,20.221,31.593,20.014z"/>
	</g>
</g>
<g id="Layer_3" display="none">
	<g display="inline">
		<path fill-rule="evenodd" clip-rule="evenodd" fill="#333333" d="M46.831,8.792c0,0.594,0,1.188,0,1.783
			c-0.814,4.503-3.294,7.341-7.753,8.199c1.299,3.41,2.982,5.833,3.475,9.714c1.023,8.061-4.358,13.623-10.249,15.686
			c-3.281,1.148-7.55,1.232-12.12,0.979c-4.035-0.223-7.475-1.83-9.893-3.92c-2.731-2.361-4.835-5.869-5.08-10.516
			c-0.259-4.934,2.241-7.985,3.654-11.853c-4.214-1.104-6.924-3.712-7.664-8.289c0-0.594,0-1.188,0-1.783
			c0.206-1.43,0.544-2.432,1.248-3.654c0.578-1.006,1.245-2.406,2.405-2.406c0.996,0,1.809,1.273,2.496,1.96
			c2.228,2.228,5.097,4.959,6.95,6.684c4.362-4.442,15.173-4.259,19.43,0.089c2.117-1.827,4.624-4.535,6.862-6.772
			c0.746-0.746,1.709-2.007,2.673-1.96c1.048,0.049,1.739,1.398,2.318,2.406C46.31,6.399,46.692,7.65,46.831,8.792z M8.508,9.594
			C7.294,8.379,6.18,6.985,4.854,6.118c-2.649,4.254,0.456,10.028,5.169,10.16c0.721-1.063,1.422-2.143,2.228-3.12
			C11.096,11.946,9.735,10.82,8.508,9.594z M35.779,13.426c0.944,0.297,1.382,2.601,2.229,2.852
			c0.522,0.155,1.734-0.303,2.406-0.624c3.144-1.509,5.17-6.361,2.585-9.625C40.659,8.562,38.045,10.819,35.779,13.426z
			 M16.798,12.891c3.809,1.894,6.14,5.267,5.792,11.319c0.689-0.388,1.854-0.271,2.674-0.089c-0.519-6.252,2.288-9.18,5.882-11.318
			C27.865,10.1,19.94,9.973,16.798,12.891z M11.184,20.289c-0.91,1.997-2.054,4.05-2.676,5.882
			c-1.746,5.154,0.421,10.371,3.478,13.012c2.922,2.523,7.074,3.385,11.941,3.385c2.518,0,4.828-0.072,6.952-0.711
			c4.995-1.504,9.161-5.736,9.179-11.676c0.012-3.75-1.649-6.25-2.94-9.09c-1.103-2.426-1.934-4.832-3.833-6.417
			c-2.495,1.534-5.019,2.939-5.347,6.327c-0.279,2.88,0.618,5.761-0.178,7.931c-0.144,0.389-0.676,1.043-1.07,1.426
			c-0.367,0.357-1.291,0.813-1.337,1.248c-0.056,0.537,0.663,1.258,0.98,1.604c1.879,2.045,5.602,1.574,6.684-1.248
			c0.343-0.893,0.054-2.541,1.427-2.672c2.338-0.223,1.422,3.188,0.802,4.367c-1.24,2.355-4.259,4.123-7.485,3.387
			c-0.631,1.615-1.922,2.852-3.833,2.852c-2.092,0-3.129-1.467-4.011-2.852c-3.563,0.715-6.44-1.336-7.486-4.012
			c-0.571-1.465-0.897-4.053,1.159-3.742c1.265,0.189,0.939,1.623,1.248,2.584c0.627,1.957,3.379,3.479,5.704,2.229
			c0.64-0.346,2.051-1.621,1.96-2.496c-0.046-0.441-0.972-0.896-1.337-1.248c-0.414-0.396-0.911-1.064-1.069-1.514
			c-0.637-1.816-0.046-4.835-0.179-7.13c-0.223-3.86-2.525-5.633-5.347-7.04C12.974,16.102,12.205,18.042,11.184,20.289z
			 M25.264,27.774c0.077-1.49-2.871-1.58-2.674,0.088c0.069,0.584,0.826,0.818,1.337,1.16
			C24.563,28.606,25.229,28.431,25.264,27.774z M23.838,34.638c-0.23,0.676-1.195,0.773-1.248,1.424
			c-0.113,1.402,2.671,1.631,2.674-0.088C24.8,35.515,24.421,34.974,23.838,34.638z"/>
		<path fill-rule="evenodd" clip-rule="evenodd" fill="#333333" d="M15.728,21.358c1.106-0.2,1.794,0.56,1.515,1.693
			c-0.304,1.234-2.312,1.15-2.584,0C14.396,21.946,14.96,21.497,15.728,21.358z"/>
		<path fill-rule="evenodd" clip-rule="evenodd" fill="#333333" d="M31.681,21.358c1.869-0.405,2.107,2.458,0.445,2.584
			C30.385,24.075,30.136,21.692,31.681,21.358z"/>
	</g>
</g>
<g id="Layer_2" display="none">
	<g display="inline">
		<path fill-rule="evenodd" clip-rule="evenodd" fill="#333333" d="M45.416,14.438c0,0.501,0,1.002,0,1.504
			c-0.416,2.507-1.518,4.329-3.341,5.43c1.504,1.863,2.965,3.771,3.341,6.766c0,0.584,0,1.17,0,1.754
			c-0.304,2.043-1.187,3.848-2.423,5.096c-7.034,7.109-30.949,7.205-38.006-0.084c-1.173-1.211-2.083-3.117-2.339-5.012
			c0-0.584,0-1.17,0-1.754c0.395-2.945,1.762-4.92,3.341-6.683c-1.741-1.21-2.95-2.953-3.341-5.513c0-0.501,0-1.003,0-1.504
			C3.138,9.702,8.24,6.042,13.507,8.424c2.096-1.123,4.424-0.95,6.181,0.083c0.677,0.397,1.5,1.702,2.172,1.837
			c0.61,0.123,2.027-0.199,2.84-0.167c0.427,0.017,1.228,0.259,1.586,0.167c0.572-0.146,1.407-1.397,2.173-1.837
			c1.735-0.998,4.197-1.209,6.097-0.083C39.583,6.103,45.002,9.577,45.416,14.438z M5.154,14.772
			c-0.231,3.015,2.084,5.237,4.594,5.431c2.74,0.21,5.225-1.93,5.429-4.595c0.254-3.3-2.457-5.8-5.68-5.347
			C7.11,10.598,5.34,12.346,5.154,14.772z M8.662,22.541c-1.656,1.296-2.983,2.919-3.425,5.429c10.4,3.043,27.193,3.053,37.59,0
			c-0.136-1.02-0.598-2.191-1.254-3.174c-0.441-0.66-1.466-2.126-2.256-2.255c-0.576-0.094-1.276,0.188-1.753,0.167
			c-5.476-0.238-9.177-6.506-6.015-11.528c0.191-0.305,0.63-0.647,0.501-1.002c-1.295-0.007-2.339,0.272-3.174,1.086
			c-0.623,0.606-0.744,1.476-1.504,1.671c-1.014,0.26-2.841-0.341-4.176-0.251c-0.822,0.056-1.862,0.471-2.589,0.251
			c-0.779-0.236-0.789-1.055-1.42-1.671c-0.784-0.763-2.027-1.163-3.342-1.086C20.382,15.457,15.886,24.024,8.662,22.541z
			 M32.887,14.772c-0.232,3.015,2.084,5.237,4.595,5.431c2.739,0.21,5.225-1.93,5.429-4.595c0.254-3.3-2.456-5.8-5.681-5.347
			C34.843,10.598,33.073,12.346,32.887,14.772z M23.948,37.745c8.272,0,16.576-1.52,18.712-7.102
			c-10.474,2.818-26.782,2.813-37.256,0C7.354,36.134,15.915,37.745,23.948,37.745z"/>
		<path fill-rule="evenodd" clip-rule="evenodd" fill="#333333" d="M9.832,12.768c1.522-0.374,1.587,1.079,1.587,2.506
			c0,1.154,0.022,1.731-0.334,2.088c-0.405,0.405-1.376,0.461-1.838,0c-0.441-0.441-0.581-2.811-0.334-3.759
			C9.03,13.152,9.426,12.867,9.832,12.768z"/>
		<path fill-rule="evenodd" clip-rule="evenodd" fill="#333333" d="M37.564,12.768c1.523-0.374,1.587,1.079,1.587,2.506
			c0,1.154,0.022,1.731-0.334,2.088c-0.405,0.405-1.377,0.461-1.838,0c-0.44-0.441-0.581-2.811-0.334-3.759
			C36.762,13.152,37.158,12.867,37.564,12.768z"/>
		<path fill-rule="evenodd" clip-rule="evenodd" fill="#333333" d="M21.192,20.286c1.107-0.272,1.633,0.368,1.587,1.253
			c-0.074,1.44-2.595,1.782-2.506-0.167C20.295,20.9,20.518,20.452,21.192,20.286z"/>
		<path fill-rule="evenodd" clip-rule="evenodd" fill="#333333" d="M26.204,20.286c1.106-0.272,1.633,0.368,1.587,1.253
			c-0.074,1.44-2.596,1.782-2.507-0.167C25.307,20.9,25.529,20.452,26.204,20.286z"/>
	</g>
</g>
</svg>
